<svg width="36" height="36" viewBox="0 0 36 36" fill="none" xmlns="http://www.w3.org/2000/svg">
<g clip-path="url(#clip0_134_21)">
<mask id="mask0_134_21" style="mask-type:luminance" maskUnits="userSpaceOnUse" x="0" y="0" width="36" height="36">
<path d="M0 0H36V36H0V0Z" fill="white"/>
<path fill-rule="evenodd" clip-rule="evenodd" d="M5.53803 19.3842C4.26418 19.3842 3.66603 17.8099 4.61865 16.9653L17.0802 5.88836C17.3336 5.66334 17.6607 5.53906 17.9996 5.53906C18.3384 5.53906 18.6656 5.66334 18.919 5.88836L31.3805 16.9653C32.3331 17.8099 31.7336 19.3842 30.4611 19.3842H29.0765V29.0765C29.0765 29.4437 28.9306 29.7959 28.6709 30.0556C28.4113 30.3152 28.0591 30.4611 27.6919 30.4611H8.30726C7.94004 30.4611 7.58786 30.3152 7.32819 30.0556C7.06852 29.7959 6.92265 29.4437 6.92265 29.0765V19.3842H5.53803ZM13.8457 27.6919V20.7688C13.8457 20.4016 13.9916 20.0494 14.2513 19.7897C14.5109 19.5301 14.8631 19.3842 15.2303 19.3842H20.7688C21.136 19.3842 21.4882 19.5301 21.7479 19.7897C22.0075 20.0494 22.1534 20.4016 22.1534 20.7688V27.6919H26.3073V17.9996C26.3072 17.7533 26.3729 17.5114 26.4975 17.2989C26.6221 17.0864 26.8012 16.911 27.0162 16.7908L17.9996 8.77389L8.98295 16.7908C9.19796 16.911 9.37701 17.0864 9.50162 17.2989C9.62624 17.5114 9.69192 17.7533 9.69188 17.9996V27.6919H13.8457ZM16.615 27.6919V22.1534H19.3842V27.6919H16.615Z" fill="black"/>
</mask>
<g mask="url(#mask0_134_21)">
<path d="M18 36C27.9411 36 36 27.9411 36 18C36 8.05888 27.9411 0 18 0C8.05888 0 0 8.05888 0 18C0 27.9411 8.05888 36 18 36Z" fill="#81CB3D"/>
</g>
</g>
<defs>
<clipPath id="clip0_134_21">
<rect width="36" height="36" fill="white"/>
</clipPath>
</defs>
</svg>
