<svg width="38" height="38" viewBox="0 0 38 38" fill="none" xmlns="http://www.w3.org/2000/svg">
<path d="M34.4375 5.9375H3.5625C3.24756 5.9375 2.94551 6.06261 2.72281 6.28531C2.50011 6.50801 2.375 6.81006 2.375 7.125V30.875C2.375 31.1899 2.50011 31.492 2.72281 31.7147C2.94551 31.9374 3.24756 32.0625 3.5625 32.0625H34.4375C34.7524 32.0625 35.0545 31.9374 35.2772 31.7147C35.4999 31.492 35.625 31.1899 35.625 30.875V7.125C35.625 6.81006 35.4999 6.50801 35.2772 6.28531C35.0545 6.06261 34.7524 5.9375 34.4375 5.9375ZM19.7288 21.1249C19.5204 21.2869 19.264 21.3749 19 21.3749C18.736 21.3749 18.4796 21.2869 18.2712 21.1249L6.64629 12.0836L8.10395 10.2088L19 18.6831L29.8961 10.2088L31.3537 12.0836L19.7288 21.1249Z" fill="#81CB3D"/>
</svg>
